PathFileType	4	(X/Y/Z)	C:\Users\WrightLab\Desktop\Jo\P5V139.trc
DataRate	CameraRate	NumFrames	NumMarkers	Units	OrigDataRate	OrigDataStartFrame	OrigNumFrames
100.00	100.00	       7	19	mm	100.00	72	       571
Frame#	Time	Headset_Front			Headset_Back			Headset_Left			Headset_Right			Left_Shoulder			Right_Shoulder			Sternum			C7			Left Elbow			Right Elbow			Left Wrist			Right Wrist			Left ASIS			Right ASIS			S2			Left Knee			Right Knee			Left Ankle			Right Ankle			
		X1	Y1	Z1	X2	Y2	Z2	X3	Y3	Z3	X4	Y4	Z4	X5	Y5	Z5	X6	Y6	Z6	X7	Y7	Z7	X8	Y8	Z8	X9	Y9	Z9	X10	Y10	Z10	X11	Y11	Z11	X12	Y12	Z12	X13	Y13	Z13	X14	Y14	Z14	X15	Y15	Z15	X16	Y16	Z16	X17	Y17	Z17	X18	Y18	Z18	X19	Y19	Z19	

72	0.710	232.71440	1649.93396	-752.09387	307.62021	1486.27222	-949.24420				104.88550	1750.86230	-825.85394	59.47901	1497.98767	-952.46399	44.29498	1047.17090	-521.15082				177.01295	1308.21484	-766.91608	370.03674	1230.27832	-1038.68433	-163.15611	1156.51563	-833.65674	371.66431	1182.08215	-826.84650	-68.29434	1059.90173	-646.50775	305.34259	921.15448	-858.70911	82.87031	925.53192	-711.55316	66.73001	965.48029	-1049.50342	205.02843	463.32300	-1003.65692	147.92841	497.57861	-744.44330	-10.28397	114.11206	-1205.70984	182.71881	80.08700	-791.71613	
73	0.720	234.89880	1651.65112	-745.87048	311.62296	1488.86841	-941.62317				106.90652	1751.89746	-819.62341	63.40574	1499.07129	-946.57202							182.10013	1309.57690	-760.36310	374.61096	1232.28186	-1030.58350	-158.19473	1156.50439	-829.77435	376.33264	1183.67419	-820.12579	-65.08768	1060.57300	-640.17786	312.42786	923.86804	-850.91046	88.63286	926.64838	-705.01440	74.38561	966.24054	-1042.68591	210.02081	464.25378	-993.44232	151.92075	499.70511	-739.07245				182.63582	80.20239	-790.99939	
74	0.730	237.22758	1653.36670	-739.54132	315.27979	1491.78589	-935.35706				109.08181	1752.84998	-813.20795	67.35934	1499.38269	-940.02484							184.53772	1310.80774	-753.45630	378.86102	1234.56445	-1023.60773	-153.68681	1156.55054	-825.11871				-60.62933	1059.80408	-634.68811	319.44836	926.48615	-842.21027	93.55935	927.86780	-698.78448	82.16740	968.03748	-1036.59839	215.14853	464.87466	-983.75781	155.27269	500.94678	-734.53308				182.62883	80.20975	-791.00256	
75	0.740	239.69542	1655.04065	-733.16241	319.78513	1493.51221	-926.99451				111.26651	1753.35840	-807.61682	71.90524	1499.96350	-934.01599							189.42177	1312.27881	-747.17346	384.33160	1236.38586	-1015.84955	-148.34448	1155.86243	-819.89795	389.37494	1189.77344	-807.49847	-55.99436	1059.62195	-629.49677	326.46490	928.85425	-834.37164	97.36336	928.75916	-693.09698	89.50346	969.71930	-1031.26721	220.18190	465.69446	-972.80066	158.21484	501.19147	-729.01617				183.10533	80.77695	-790.89807	
76	0.750	242.34532	1656.46509	-726.99664	323.74673	1495.83630	-920.38037				113.60242	1753.76843	-801.29382	75.99445	1500.84753	-928.44757	-44.97847	1414.93750	-739.46484				192.48276	1313.02832	-739.14349	388.96039	1239.37830	-1009.38208	-143.08414	1155.65295	-814.78339	393.80206	1191.43518	-801.70557	-54.08788	1060.74365	-624.28693	332.63931	930.60956	-827.12561	102.67606	929.89691	-686.81964	95.93333	971.25311	-1026.71411	225.98471	466.53964	-961.96417	160.65067	501.76733	-724.01642	64.60097	1051.46082	-582.66162	184.41588	79.58926	-795.61768	
77	0.760	245.00208	1658.17358	-720.90198	328.07303	1497.56250	-913.14490				115.70596	1754.64001	-796.14514	79.87459	1501.71350	-922.32245	-41.19991	1415.00879	-733.16095				197.16330	1314.57666	-733.56586	394.38959	1241.07532	-1002.80225	-138.88667	1155.72144	-810.30542	397.65076	1194.19568	-794.27716	-49.59584	1059.94238	-619.38361	337.97293	932.14319	-820.21124	105.97060	930.27222	-680.45343	103.03831	972.52039	-1020.68835	232.74039	467.92746	-951.45026	162.04924	502.40588	-719.97290	22.58474	137.94592	-1180.22485	184.12787	80.86289	-791.92487	
78	0.770	247.87123	1659.93469	-714.43225	332.22034	1499.47522	-906.21692				117.93087	1755.15991	-791.36578	83.91035	1502.95776	-916.39880	-37.39742	1415.96179	-727.65558				199.73442	1315.35815	-727.02692	399.34714	1243.56750	-996.12628	-134.60030	1156.06238	-805.49756	400.00345	1195.50891	-786.62836	-44.50937	1059.70667	-613.37207	344.82303	933.36481	-814.14923	110.26725	930.83575	-675.95032	109.44829	974.10687	-1014.34918	239.44321	468.53473	-940.44391	161.43854	500.70743	-718.52863	25.96846	140.55565	-1179.29712	184.31798	81.11588	-792.47046	
